# xmcd
#
# Track frame offsets:
#	150
#	12138
#	26027
#	37555
#	51969
#	67364
#	79851
#	90648
#	102762
#	115221
#	126312
#	138644
#	151320
#	163185
#	175537
#	188769
#	199535
#	212771
#	224531
#	236960
#	250620
#	262321
#	274936
#	287696
#	299212
#
# Disc length: 4153 seconds
#
# Revision: 1
# Processed by: cddbd v1.5.2PL0 Copyright (c) Steve Scherf et al.
# Submitted via: audiograbber 1.83.01
#
DISCID=80103719
DTITLE=Verschiedene - Historic Country and Western CD 01
DYEAR=1900
DGENRE=Country
TTITLE0=Roy Acuff and The Smoky Mountain Boys - I'll Forgive You, But I Can't For
TTITLE0=get
TTITLE1=Bill Monroe and His Bluegrass Boys - Blue Monn Of Kentucky
TTITLE2=Bob Wills and His Texas Playboys - New Spanish Two Step
TTITLE3=Ernest Tubb - Shame On You
TTITLE4=Billy Boyd and The Cowboy Rangers - It's Been So Long Darling
TTITLE5=Jack Guthrir and His Oklahomans - Oklahoma Hills
TTITLE6=Jimmie Davis - There's A New Moon Over My Shoulder
TTITLE7=Tex Ritter - You Two Timedme One Time Too Often
TTITLE8=Al Dexter - Rosalita
TTITLE9=Floyd Tillman - They Took The Stars Out Of Heaven
TTITLE10=The Delmore Brothers - Freight Train Boogie
TTITLE11=Elton Britt - Someday
TTITLE12=Foy Willig and The Riders Of The Purple Stage - Detour
TTITLE13=Gene Autry - Have I Told You Latelythat I Love You?
TTITLE14=Merle Travis - So Round, So Firm, So Fully Packed
TTITLE15=Roy Rogers and Country Washburne Snd His Orchestra - My Chickashay Girl
TTITLE16=Sons Of The Pioneers - Teardrop In My Heart
TTITLE17=Cowboy Copas - Signed, Sealed An Delivered
TTITLE18=Jimmy Wakely - I Love You So Much It Hurts Me
TTITLE19=Ernest Tubb and Red Foley - Goodnight Irene
TTITLE20=Kay Starr and Tennessee Ernie Ford - I'll Never Be Free
TTITLE21=Red Foley - Chattanoogie Sho Shine Boy
TTITLE22=Carl Smith - Let Old Mother Nature Have Her Way
TTITLE23=Eddy Arnold - Kentucky Waltz
TTITLE24=Hank Williams and The Drifting Cowboys - Cold Cold Heart
EXTD=
EXTT0=
EXTT1=
EXTT2=
EXTT3=
EXTT4=
EXTT5=
EXTT6=
EXTT7=
EXTT8=
EXTT9=
EXTT10=
EXTT11=
EXTT12=
EXTT13=
EXTT14=
EXTT15=
EXTT16=
EXTT17=
EXTT18=
EXTT19=
EXTT20=
EXTT21=
EXTT22=
EXTT23=
EXTT24=
PLAYORDER=
